<?xml version="1.0" encoding="UTF-8" standalone="no"?>
<svg
   height="89.473999"
   viewBox="0 -960 3578.9599 3578.9599"
   width="89.473999"
   fill="#e3e3e3"
   version="1.1"
   id="svg1"
   sodipodi:docname="Pozo Off.svg"
   xml:space="preserve"
   inkscape:version="1.4.3 (0d15f75, 2025-12-25)"
   xmlns:inkscape="http://www.inkscape.org/namespaces/inkscape"
   xmlns:sodipodi="http://sodipodi.sourceforge.net/DTD/sodipodi-0.dtd"
   xmlns="http://www.w3.org/2000/svg"
   xmlns:svg="http://www.w3.org/2000/svg"><defs
     id="defs1"><inkscape:path-effect
       effect="fillet_chamfer"
       id="path-effect17"
       is_visible="true"
       lpeversion="1"
       nodesatellites_param="F,0,0,1,0,0,0,1 @ F,0,0,1,0,0,0,1 @ F,0,1,1,0,0,0,1 @ F,0,0,1,0,0,0,1 | F,0,0,1,0,0,0,1 @ F,0,0,1,0,0,0,1 @ F,0,0,1,0,0,0,1 @ F,0,0,1,0,0,0,1"
       radius="0"
       unit="px"
       method="auto"
       mode="F"
       chamfer_steps="1"
       flexible="false"
       use_knot_distance="true"
       apply_no_radius="true"
       apply_with_radius="true"
       only_selected="false"
       hide_knots="false" /></defs><sodipodi:namedview
     id="namedview1"
     pagecolor="#ffffff"
     bordercolor="#666666"
     borderopacity="1.0"
     inkscape:showpageshadow="2"
     inkscape:pageopacity="0.0"
     inkscape:pagecheckerboard="0"
     inkscape:deskcolor="#d1d1d1"
     inkscape:zoom="4"
     inkscape:cx="-32.25"
     inkscape:cy="69.125"
     inkscape:window-width="1920"
     inkscape:window-height="1057"
     inkscape:window-x="-8"
     inkscape:window-y="-8"
     inkscape:window-maximized="1"
     inkscape:current-layer="layer2" /><g
     inkscape:groupmode="layer"
     id="layer1"
     inkscape:label="Layer 1"
     style="display:inline"
     transform="translate(1304.7752,1165.575)" /><g
     inkscape:groupmode="layer"
     id="layer2"
     inkscape:label="Layer 2"
     style="display:inline"
     transform="translate(1304.7752,1165.575)"><path
       id="path17"
       style="fill:#1c3bff;fill-opacity:1;stroke-width:0;stroke-linecap:round;stroke-linejoin:round"
       d="m 228.98136,-1951.8246 c -4.9144,-4.9144 -233.40832,-3.4874 -289.68748,1.875 -35.298,3.3632 -63.71792,20.0638 -91.25,53.125 -51.45464,61.788 -91.41988,171.309 -113.43748,312.1875 -40.30208,257.8703 -16.62364,562.4883 57.5,742.8125 25.83872,62.85908 51.81092,102.45484 93.125,141.56248 l 22.81248,21.56248 h 161.25 c 88.7198,0.02 161.25004,-0.504 161.25004,-0.9376 0,-0.4336 -8.1408,-12.90368 -18.12496,-27.81248 -41.28592,-61.6506 -71.88632,-134.55344 -95.93756,-229.37488 -21.95104,-86.5414 -34.7622,-175.2321 -41.56252,-285.625 -2.42288,-39.326 -2.41696,-155.8283 0,-196.25 9.99376,-167.1386 39.17468,-307.258 86.25,-413.75 15.968,-36.1238 30.29648,-60.6769 62.18752,-106.25 4.168,-5.9498 6.0288,-9.2772 6.2496,-11.25 l 0.32,-0.312 -0.32,-0.312 v -0.312 -0.312 -0.312 h -0.32 v -0.312 z m 155.31248,46.5625 c -57.9368,-1.8466 -112.09136,37.6889 -151.24992,114.0625 -35.26976,68.7892 -62.98256,181.1976 -74.06256,300.9375 -17.33092,187.2946 3.0512,402.6891 54.06256,573.4375 40.38336,135.1724 95.37472,223.48296 149.37504,239.68748 2.744,0.8224 11.1456,1.81456 18.43744,1.87504 28.26512,0.2352 51.09296,-15.68768 82.18752,-57.18752 61.03088,-81.45372 111.82992,-218.8252 137.81248,-372.5 48.30432,-285.6989 12.39584,-570.115 -91.56256,-726.25 -10.38464,-15.5965 -29.92592,-35.6087 -44.68736,-45.625 -26.872,-18.2339 -53.9776,-27.5982 -80.31264,-28.4375 z m 11.5632,78.4375 c 25.94608,-0.062 26.74064,0.1824 36.87504,5.3125 28.03472,14.1902 50.82816,49.5191 70.93744,110.625 23.63824,71.8287 39.54,171.1691 52.5,326.875 5.2432,62.9883 5.2048,131.5631 0,179.3749 -20.46656,187.9948 -82.36496,386.9484 -135.62496,435.62508 -5.408,4.9432 -12.6352,9.62176 -16.25008,10.62496 -7.8544,2.18064 -8.2192,2.13024 -18.43744,-0.6256 -58.04736,-15.6512 -117.79216,-136.80232 -147.18752,-298.12504 -15.7104,-86.2157 -21.0928,-154.7342 -20.93744,-262.5 0.1584,-109.0735 4.976,-191.667 15.6256,-263.4375 20.79216,-140.1232 59.34896,-214.2271 124.06256,-239.0625 10.8704,-4.1725 14.2496,-4.6301 38.43744,-4.6875 z m -1403.75004,140 c -113.8047,3.7478 -171.5892,7.3138 -189.375,11.2499 -4.1771,0.9248 -11.8836,4.9587 -17.1875,9.0626 l -9.375,7.1875 -1.2496,260.9375 c -0.5888,143.4805 -1.5936,288.2154 -2.1875,321.5625 -1.5504,87.0912 2.3219,120.4 16.5625,147.5 17.1168,32.57336 45.9999,44.05604 123.4375,49.68748 4.8613,0.3536 42.4284,0.3632 83.75,0 41.32151,-0.3632 214.58204,-1.2656 384.99996,-1.87504 l 310,-0.9376 -1.2496,-3.74992 c -24.7204,-77.01352 -43.21416,-197.02482 -52.18888,-337.81242 -2.96896,-46.58 -2.96608,-205.8281 0,-245.9375 6.52304,-88.2085 16.13952,-149.916 30,-192.8125 l 5.31248,-16.25 -4.06256,-0.9376 c -9.02992,-2.2664 -38.81268,-4.7519 -85,-6.8751 -67.08748,-3.0838 -498.28541,-3.0924 -592.1875,0 z m -87.5,136.875 c 5.9898,0.1052 11.9931,3.632 22.5,10.3124 l 14.6875,9.0626 v 54.375 c 0.049,149.1989 5.2242,406.2685 9.0626,452.1875 1.0784,12.8973 1.5776,26.2784 0.9376,29.6875 -1.3488,7.1902 -9.9205,17.4464 -17.8125,21.5625 -7.6274,3.9783 -16.3627,5.4162 -26.875,4.0626 -10.2954,-1.3264 -13.3054,-2.7125 -28.4375,-12.8125 l -10.9383,-7.5001 v -270.625 -270.9375 l 15.3125,-10 c 9.728,-6.3253 15.5726,-9.4802 21.5625,-9.375 z m 256.2494,501.5625 c 46.65648,-3.4143 113.70772,2.1845 135,11.2499 7.13696,3.0387 9.29664,5.2366 14.37504,14.375 7.64048,13.7488 9.08128,21.4153 5.62496,29.6876 -5.30992,12.7081 -24.84552,20.6482 -61.875,24.375 -21.88676,2.2028 -109.36432,2.1912 -126.25,0 -15.06104,-1.9544 -25.5138,-7.6288 -32.81252,-17.1875 -7.67248,-10.0482 -10.49499,-18.1849 -9.37499,-28.125 0.98794,-8.7656 7.99114,-19.0395 16.56251,-24.0625 7.95316,-4.6608 27.51528,-8.0268 58.75,-10.3125 z" /><path
       id="path2"
       style="fill:#000000;stroke-width:0.999996"
       d="m 162.1064,-2025.5746 c -326.92576,0.092 -347.52896,9.1702 -432.5,191.875 l -35,75 h -449.375 c -524.4638,0 -508.7302,-2.4265 -539.6875,84.375 -13.369,37.4857 -13.9271,750.7849 -0.625,787.5 31.8671,87.95396 31.582,87.73408 564.0625,87.81248 l 454.68748,0.3124 23.12504,45 c 32.71276,63.2264 81.5616,116.2744 127.5,138.75 l 38.43748,18.75 255.31252,-2.18748 255.31248,-2.18748 33.125,-19.37504 c 32.23204,-18.94868 71.03248,-56.64564 93.75,-91.56248 l 11.25,-17.5 c 111.08624,-215.2358 225.62736,-696.0097 48.43748,-1065.3125 -100.09532,-208.6208 -117.4346,-231.3424 -447.81248,-231.25 z m 70.31248,76.25 -0.3124,0.3124 c -0.88728,3.2374 -8.29572,15.0306 -17.18752,26.875 -187.82612,250.1946 -189.625,943.2616 -3.12496,1215.31252 l 21.25,30.62496 h -162.81252 -162.5 l -28.43748,-25.62496 c -241.00972,-217.73782 -210.05092,-1174.22742 40.31248,-1243.75002 28.03124,-7.784 312.81248,-11.2081 312.81248,-3.75 z m 144.37504,45.625 c 55.99368,-1.6124 108.05304,34.3131 135.93748,78.125 186.42884,292.9156 117.65276,903.1233 -65.31252,1116.87496 C 264.4536,-494.94792 55.08224,-1243.2416 200.8564,-1710.8871 c 43.99112,-141.1242 112.47796,-190.9852 175.93752,-192.8125 z m 22.18748,75.9375 c -129.65712,-2.0045 -181.25,174.0253 -181.25,521.875 0,318.7345 97.72056,542.76674 177.5,547.8125 73.11852,4.62444 176.27828,-370.9787 164.06252,-567.1875 -12.11272,-194.5529 -41.66368,-490.9559 -147.5,-501.5625 -4.34572,-0.4355 -8.63004,-0.8728 -12.81252,-0.9375 z m -24.06252,102.5 c 0.174,-0.028 0.45412,0.012 0.62504,0 0.1676,0.01 0.7734,-0.024 0.93748,0 0.1604,0.042 0.78112,0.2508 0.93748,0.3124 0.1524,0.082 0.78972,0.5232 0.93752,0.625 0.1432,0.1228 0.7992,0.4807 0.93752,0.625 4.8836,2.0959 83.13308,41.3229 88.12496,406.25 3.37592,246.7933 -68.0716,424.94942 -79.06248,435.62502 l -0.3124,0.3124 h -0.3124 -0.3124 c -71.84528,-2.30252 -121.62976,-663.81802 -36.25,-815.93752 4e-5,0 14.18124,-26.2748 23.75,-27.8125 z m -700.93748,49.6875 c -56.96108,148.4382 -49.56976,570.5898 13.75,781.25 l 5,15.93748 h -444.68748 c -549.49082,0 -473.43752,64.91336 -473.43752,-403.43748 v -374.6875 l 19.0625,-15 c 25.4398,-20.0109 887.95902,-23.9893 880.3125,-4.0625 z m -769.375,128.125 c -4.8332,0.016 -9.8004,2.6705 -18.125,8.125 l -18.125,11.875 v 270 270 l 16.25,11.25 c 34.1478,23.918 75.1982,2.4041 66.25,-34.6875 -2.9935,-12.4087 -6.6703,-133.7795 -8.125,-269.6875 l -2.5,-246.875 -17.8125,-11.875 c -8.24,-5.3989 -12.9793,-8.1412 -17.8125,-8.125 z m 299.68752,501.25 c -46.87948,-0.9298 -94.80224,3.7024 -106.25,14.0625 -17.19457,15.5607 -16.72649,34.8361 1.25,52.8125 12.8286,12.8287 23.96564,14.375 100.93748,14.375 107.57084,0 136.49268,-17.2705 104.375,-63.125 -7.52,-10.7364 -53.43304,-17.1953 -100.31248,-18.125 z"
       sodipodi:nodetypes="ccccscccccccccccscccscccccscssssscsssscscccccscccccscccsscccscccccscccsssssss" /><path
       style="fill:#ff0000;fill-opacity:1;stroke-width:0;stroke-linecap:round;stroke-linejoin:round"
       d="m 378.0828,-887.63312 c -49.00704,-43.02888 -85.62432,-397.07728 -65.23984,-630.79948 8.6416,-99.0804 24.69184,-161.8358 49.8184,-194.7839 10.5296,-13.8077 14.8912,-13.5136 29.22704,1.971 28.5184,30.8032 52.1792,108.8088 63.91408,210.713 11.1968,97.2283 13.8272,226.4505 6.2752,308.1617 -9.1504,98.9954 -29.68528,197.3464 -56.49104,270.5595 -6.9744,19.0507 -17.10688,39.77474 -19.44544,39.77474 -0.928,0 -4.552,-2.5184 -8.0576,-5.59664 z"
       id="path18" /><g
       id="g23"
       style="display:none"
       transform="translate(0,99.999998)"><path
         d="m 419.96684,-1816.6615 c -265.09192,-8.3391 -23.80492,-103.9662 -12.03256,-101.8206 146.78996,26.754 468.44008,93.2583 646.16872,219.1713 142.2693,100.7916 281.1146,242.2104 348.9984,371.7624 88.1132,168.1584 98.7637,231.7384 98.7637,589.58596 0,156.33156 1.2354,284.23904 2.7451,284.23904 1.5098,0 36.4178,-21.22356 77.5732,-47.16348 224.1505,-141.28028 335.979,-153.98584 409.0398,-46.47412 60.2836,88.70904 -19.448,183.35856 -182.3197,216.43204 -174.8421,35.50428 -268.0795,132.01144 -224.9418,232.83064 33.4319,78.13552 103.1552,88.22756 228.1961,33.02976 177.9202,-78.54068 285.8946,-44.79636 294.6094,92.072 1.6128,25.32696 5.0548,46.04908 7.6488,46.04908 2.594,0 28.1524,-6.4946 56.7968,-14.43232 112.5756,-31.1962 102.776,-77.02492 102.776,480.63776 0,531.57394 4.1992,495.46474 -58.5908,503.79404 -49.5116,6.568 -68.4136,17.1556 -130.5644,73.132 -133.7544,120.4665 -251.6858,121.3972 -385.5262,3.0426 -121.0038,-107.0031 -188.3197,-106.2213 -311.7014,3.6204 -127.811,113.7846 -251.2496,111.9471 -380.0442,-5.6573 -111.66048,-101.959 -187.01156,-103.3215 -294.51464,-5.325 -137.12424,124.9983 -260.4742,126.725 -392.42544,5.4933 -113.2874,-104.0841 -185.0214,-104.3653 -299.5946,-1.174 -133.4488,120.1912 -253.0724,121.0429 -385.5496,2.7448 -118.8248,-106.1067 -185.7972,-105.601 -308.278,2.3278 -91.1428,80.3137 -179.236,103.95 -268.4904,72.0385 v 0 c -40.5956,-14.5143 -53.2192,-23.163 -119.66272,-81.9825 -53.5144,-47.3734 -79.5008,-61.8856 -122.6196,-68.4766 -62.5792,-9.566 -56.6824,42.4025 -56.6824,-499.5473 0,-534.35424 -3.6508,-499.10072 51.6852,-499.10072 56.878,0 107.3608,23.92964 169.4415,80.31772 121.35162,110.22384 195.78082,109.99872 317.50362,-0.96012 124.0672,-113.09592 243.134,-110.76128 376.9992,7.39188 114.3884,100.9624 190.1392,101.16876 300.2248,0.818 66.396,-60.52464 107.6344,-82.20728 164.122,-86.2932 48.5116,-3.50896 46.934,-0.735 21.9168,-38.53876 -82.252,-124.2906 87.762,-192.27992 304.71624,-121.85712 166.79904,54.14248 206.02344,35.75824 237.85692,-111.48244 21.38064,-98.89304 65.31824,-168.85008 120.371,-191.65368 84.35056,-34.93912 -119.828,-463.67348 -418.11512,-443.51744 l 45.57732,-80.52384 c -32.76692,57.89104 25.57596,-728.96448 29.76484,-861.69688 M -785.30968,1112.003 c 15.7412,-8.0307 53.3992,-37.1888 83.6844,-64.7958 124.0672,-113.09578 243.134,-110.76126 376.9992,7.392 114.3884,100.9624 190.1392,101.1688 300.2248,0.818 133.8372,-122.00186 256.63568,-121.18802 392.742,2.6028 109.1412,99.2656 183.66404,96.8142 304.69476,-10.0232 128.53272,-113.45962 247.9264,-111.5391 377.40972,6.0708 114.6824,104.1665 188.4823,102.7366 309.569,-5.9972 125.4771,-112.67614 246.3868,-111.67626 374.1668,3.0942 114.1503,102.5284 192.8406,105.6045 296.3782,11.5858 59.956,-54.4439 93.498,-76.63696 133.384,-88.2533 l 30.6684,-8.93188 V 850.76104 735.95924 l -16.2364,4.84568 c -25.2624,7.53968 -45.7304,22.3132 -100.3192,72.40896 -27.8036,25.51544 -37.404,32.80356 -58.1436,46.39184 -124.9076,81.83712 -231.1013,11.86048 -251.6684,6.88576 -29.382,-7.10684 -40.0292,-30.06616 -70.5602,-56.96952 -113.6301,-100.12952 -187.8668,-102.96412 -290.143,-11.07876 -59.0998,53.09556 -103.1766,81.35748 -142.357,91.27888 0,0 -39.842,23.26476 -114.9453,7.20848 -33.2535,-7.10936 -98.6915,-48.23464 -145.2723,-90.9954 -110.58248,-101.51372 -184.62428,-99.0888 -307.00628,10.05492 -39.85828,35.54672 -69.53028,55.42308 -98.51292,65.99068 0,0 -26.9934,12.50928 -41.47472,15.12252 -26.78916,4.83436 -54.70712,4.40008 -81.66344,0.60692 -10.40536,-1.46412 -30.23396,-8.92432 -30.23396,-8.92432 -41.72212,-12.31552 -73.22448,-32.65892 -125.09516,-80.78332 -108.8178,-100.95892 -189.0878,-100.88612 -301.8746,0.2736 -133.8208,120.02592 -249.3692,120.56996 -384.216,1.80936 -115.78,-101.96872 -189.2012,-103.96092 -295.0312,-8.00548 -27.3512,24.79904 -57.2908,49.83424 -66.3076,55.96932 -121.3984,82.59888 -241.9276,21.11704 -265.106,2.1252 -10.74442,-8.80376 -43.95722,-33.698 -71.53632,-58.47728 -41.9824,-37.72008 -84.2268,-64.76556 -101.1628,-64.76556 -2.1116,0 -3.8396,51.69796 -3.8396,114.88428 v 114.88444 l 23.4524,5.06196 c 39.978,8.62902 76.1612,30.9245 129.2415,79.6363 84.95282,77.961 158.23162,97.2614 230.09082,60.6017 z m 691.4556,-311.21526 c 15.6904,-9.32176 53.5696,-38.78236 84.176,-65.46792 127.8584,-111.4796 235.95452,-107.21924 377.47856,14.87712 108.37608,93.49872 176.2082,97.78104 271.2892,17.12676 C 756.19716,667.9828 788.66456,653.11928 875.04764,659.3 c 63.46676,4.54104 110.56428,27.9156 175.81086,87.255 113.8651,103.5566 185.0293,103.81628 299.5884,1.0934 133.4641,-119.67468 256.0447,-121.23456 383.9942,-4.8864 127.8009,116.21312 247.2241,55.4404 319.3877,-7.31516 48.0432,-41.7798 80.2748,-60.0904 131.7624,-74.85296 6.718,-1.92624 9.0204,-31.1916 9.0204,-114.66236 0,-141.44816 -5.034,-143.15156 -118.4428,-40.08076 -127.7908,116.14188 -250.2703,114.62864 -380.2989,-4.69856 -111.0177,-101.88076 -192.677,-101.67724 -303.3142,0.75588 -54.8646,50.7962 -38.6318,57.88396 -146.4752,83.59288 C 1138.2371,611.20984 1062.8317,549.90624 1010.617,502.42452 890.60624,393.29176 826.94292,395.72776 690.15704,514.68644 567.34316,621.49384 453.11676,616.90648 318.77176,499.77128 201.13072,397.20012 130.99352,397.84888 15.76352,502.57408 c -131.4124,119.4326 -249.2732,119.17972 -382.5096,-0.8204 -114.496,-103.1212 -191.2704,-102.83644 -304.432,1.12908 -125.1332,114.96452 -250.7612,118.25396 -370.79042,9.7086 -65.0715,-58.84564 -70.3855,-62.8554 -99.3295,-74.949 l -26.7964,-11.19624 v 115.417 115.41712 l 19.8444,4.77792 c 39.7612,9.5732 87.564,39.0726 137.3443,84.75584 101.91762,93.5298 224.43202,68.44824 299.82202,-0.81704 126.2404,-115.98536 254.7608,-118.52148 377.6536,-7.45248 66.1812,59.8136 71.9428,64.08388 101.148,74.96608 38.6168,14.38908 102.7068,8.49772 138.428,-12.72472 z m -132.896,5.75052 c -1227.83882,-3141.55776 -1227.83882,-3141.55776 0,0 z m -567.4124,-307.76424 c 17.1416,-7.77924 54.4852,-35.45108 82.9852,-61.49304 131.2328,-119.91352 255.6792,-120.3636 385.1696,-1.39316 113.6728,104.43848 180.9876,105.56212 298.7328,4.98652 146.3372,-124.99828 254.2194,-126.05824 389.41164,-3.82604 115.05384,104.02408 187.42472,104.0284 302.83024,0.02 134.62636,-121.3338 246.4998,-120.84704 387.7124,1.68688 117.3995,101.87068 188.097,101.62892 298.97,-1.02256 130.1896,-120.53552 256.7116,-120.57236 387.9744,-0.112 111.6036,102.41864 179.8338,103.2546 296.4742,3.63268 66.8908,-57.13132 116.0788,-86.76988 144.0028,-86.76988 13.9128,0 14.5108,-4.60868 14.5108,-111.84964 0,-61.5174 -2.576,-111.84964 -5.724,-111.84964 -27.648,0 -138.4916,40.82776 -158.4728,58.37116 -75.8992,66.64044 -211.6329,104.03148 -222.3688,61.25672 -7.3283,-29.19824 7.2024,-42.8358 68.442,-64.2352 109.6428,-38.31324 164.836,-94.68916 156.6576,-160.01496 -8.2432,-65.8458 -62.6376,-77.60396 -163.2588,-35.29092 -151.4996,63.70812 -198.7826,70.29876 -264.2521,36.83344 -214.8222,-109.80844 -104.2488,-370.5716 184.1886,-434.36848 135.8219,-30.04136 177.4367,-68.99972 122.8063,-114.968 -66.2495,-55.74536 -236.4941,26.27828 -543.1352,261.68128 -193.2128,148.32636 -288.7155,148.53256 -388.99316,0.84028 -97.02588,-142.9032 -164.61832,-124.86628 -203.65816,54.3456 -40.73076,186.97436 -123.74276,229.2038 -323.84436,164.74444 -109.1804,-35.17064 -213.72064,-39.16276 -232.4388,-8.876 -4.0876,6.61404 34.99584,60.52664 93.93456,129.5752 36.97008,43.31152 41.14936,65.94616 15.30312,82.88112 -19.07024,12.4954 -20.44992,12.04084 -83.33932,-27.45892 -63.14476,-39.66004 -141.76836,-19.84176 -225.26276,56.78092 -50.4772,46.3228 -97.72,75.33736 -138.8228,85.25904 0,0 -72.2416,10.42384 -106.5748,1.29036 -50.7348,-13.4964 -81.8368,-32.36016 -135.722,-79.90612 -124.054,-109.45996 -191.6128,-110.82664 -306.6508,-6.20324 -44.2464,40.24048 -84.9096,68.80132 -135.8672,84.6052 -31.4436,9.75184 -66.6484,12.05736 -98.6652,4.39532 -54.1288,-12.9538 -92.2664,-35.62736 -145.37042,-82.13928 -56.9907,-49.91572 -96.7967,-76.61512 -114.2255,-76.61512 -5.2856,0 -7.1244,35.80108 -5.7704,112.35588 l 1.9872,112.35572 36.6352,12.3942 c 40.6372,13.74816 94.4139,50.77408 132.94312,91.533 53.6688,56.77392 136.1152,75.90028 200.7456,46.57 z M 1488.778,-81.20228 c -2943.3669,-2253.81972 -2943.3669,-2253.81972 0,0 z m -283.0212,-160.10776 c 21.6921,-10.09736 81.211,-49.82588 132.2641,-88.28568 l 92.8237,-69.92708 -3.2248,-321.15788 c -3.5027,-348.83292 -4.2727,-356.48772 -47.8738,-475.95772 -126.1766,-345.732 -476.97984,-555.06 -897.52136,-608.2382 0,0 -0.58568,0.2096 -30.78372,563.7996 -18.1612,338.945 -28.66448,301.404 99.31764,327.27244 36.68964,7.41592 139.01124,58.3556 207.04116,124.8322 69.54828,67.96028 137.01756,160.89776 154.45088,280.12504 7.91816,54.15284 14.47312,88.50972 40.72508,103.6184 17.50336,10.07368 42.778,38.33212 70.83432,79.1966 75.3218,109.7078 101.792,122.03352 181.9468,84.7234 z"
         style="display:inline;fill:#000000;stroke-width:0.999996"
         id="path1"
         sodipodi:nodetypes="cssssssssssssssssssssssssccssssssssssssscscssssssssssscccsssssscssscsscssssssssscssssssssssssssssssssssssssscccssssssscccsssscsssssssssssssssssssssssscsssssssscsscccccscsscsssssscc" /><path
         id="path14"
         style="display:inline;fill:#1c98ff;fill-opacity:1;stroke-width:0;stroke-linecap:round;stroke-linejoin:round"
         d="m 364.29388,-1819.3246 -15.62496,24.9999 c -42.3562,115.5082 -49.75472,265.5908 -39.68752,434.6875 5.85296,98.3113 9.42632,152.1032 24.06252,236.25 13.10356,75.3353 29.23768,119.4412 46.57168,139.37504 6.38848,7.34664 15.55092,40.39776 89.9908,53.125 22.9962,3.93172 53.8696,10.09604 68.75,14.375 145.88216,41.94796 263.4384,140.23408 329.68752,275.625 26.21928,53.58332 38.66332,93.5442 50.93748,163.43748 3.99144,22.72884 9.04752,45.35872 11.25,50 2.85156,6.0092 8.36172,11.31304 19.375,18.43752 20.04376,12.96624 39.4456,32.83012 63.4375,65.625 10.6281,14.52772 26.5522,36.69136 35.625,49.06252 27.4841,37.47552 51.0597,59.5734 70.9375,66.87496 20.1575,7.40432 48.2486,2.33072 84.6875,-15 26.1229,-12.42436 90.5762,-55.92064 163.75,-110.93748 l 62.1875,-46.875 -1.5625,-174.68752 c -1.9249,-217.27536 -5.5126,-408.42668 -8.4375,-445.00002 -5.8215,-72.7995 -18.6544,-122.3635 -52.5,-205 -106.3538,-259.6704 -366.2507,-474.6367 -664.68748,-549.3749 -78.04484,-19.5451 -149.36004,-42.0018 -244.68752,-43.75 z M 1864.2939,-537.13716 c -10.3541,-0.48172 -21.5957,0.58088 -33.4375,2.81252 -86.8472,16.36644 -222.9882,96.37472 -432.8125,254.37496 -95.0687,71.588 -144.6396,102.39008 -191.25,119.06252 -48.1593,17.22616 -91.8261,16.56224 -128.4375,-1.875 -30.3249,-15.27132 -57.6465,-40.53668 -85,-78.125 -36.4218,-50.0498 -47.33936,-63.42708 -64.68752,-80 -22.46376,-21.46 -37.48064,-29.9458 -55.31248,-31.56252 -16.468,-1.4932 -28.87116,4.13652 -43.125,19.37504 -20.0046,21.38652 -33.4882,54.94932 -52.5,130.31248 -20.84208,82.61856 -37.66588,119.03716 -68.75,149.68752 -19.1938,18.926 -35.51612,28.59812 -61.25,35.93748 -14.87364,4.242 -22.92264,5.1008 -50,5 -44.55096,-0.162 -72.8446,-5.53324 -145.625,-27.5 -68.24096,-20.59668 -108.0064,-27.3544 -157.81248,-27.5 -39.25676,-0.114 -55.63712,3.07684 -67.18752,13.125 l -6.25,5.31248 6.25,12.18752 c 7.13168,13.80512 41.4428,59.70832 71.56248,95.93752 32.75264,39.39624 35.9516,43.83452 42.18752,56.25 7.44764,14.82724 7.96412,28.69584 1.25,38.12496 -5.75532,8.0826 -21.65128,17.84452 -29.06248,17.81252 -7.60552,-0.032 -24.161,-8.11112 -51.56252,-25.31252 -29.01504,-18.21424 -46.0206,-25.49744 -66.875,-28.12496 -51.40512,-6.47616 -106.95628,17.93524 -171.25,74.68748 -55.39124,48.89392 -85.2108,71.04172 -137.18752,85 -41.62912,11.17948 -88.18828,8.65076 -129.37496,-4.06252 -45.97212,-14.19044 -63.12884,-28.2262 -121.56252,-77.5 -67.55324,-56.96376 -108.3052,-78.23476 -151.25,-78.75 -23.17644,-0.2796 -38.10204,3.20888 -61.56252,14.06252 -27.68012,12.8058 -46.43328,26.08212 -89.68748,63.75 -42.55656,37.06032 -83.17004,63.33496 -121.56252,78.43748 -10.08704,3.96804 -11.76304,7.72412 -18.43748,9.37504 -30.17656,7.4644 -62.2608,4.64412 -93.125,0.93748 -5.22568,-0.62776 -15.31248,-3.75 -15.31248,-3.75 -29.89604,-7.59216 -81.26568,-37.72784 -120.62502,-70.93748 -74.2612,-62.65828 -112.8086,-88.62368 -123.75,-83.43752 -0.1646,0.1016 -0.7876,0.50652 -0.9375,0.625 l -0.3125,0.3124 c -3.3869,3.38392 -4.7613,116.81492 -2.1875,178.75 l 1.5625,42.18748 26.875,9.06252 c 31.3113,10.97656 41.7809,16.30132 68.75,34.06248 24.4063,16.07336 41.5357,30.08072 73.74994,60.625 36.14996,34.27592 64.85948,49.67596 108.12504,57.18748 32.00828,5.55712 63.55944,1.118 92.18748,-12.81248 17.26896,-8.40308 48.30324,-31.6012 86.25,-64.375 15.89484,-13.72804 37.59476,-30.86836 48.43748,-38.125 53.92904,-36.09268 110.6074,-52.17384 161.56252,-46.25 60.11164,6.98832 109.48368,32.51668 175.625,91.25 50.29676,44.66348 86.0586,66.12784 121.25,73.125 50.11848,9.96516 96.24676,-10.2884 179.06248,-78.125 71.09312,-58.23432 126.23812,-84.35112 183.75,-87.81248 61.71388,-3.7142 120.56564,22.17092 194.06252,85.31248 38.77704,33.3136 46.35808,39.19988 64.06252,50.625 50.03724,32.29036 91.39696,39.53332 137.18748,23.75 31.40016,-10.82316 58.97624,-29.3234 110.31252,-73.43748 35.486,-30.49372 61.5022,-48.32848 90.93752,-62.5 70.239,-33.81664 131.74668,-31.8868 204.375,5.93748 27.60172,14.37484 52.5648,31.63896 91.25,63.75 36.63,30.40512 59.2414,46.11008 84.6875,58.125 37.988,17.9368 69.0512,20.66528 105.625,9.06248 30.1136,-9.55328 55.7737,-26.45248 103.75,-68.43748 37.9749,-33.23264 62.0636,-50.33176 91.5625,-65 92.1003,-45.7964 182.7564,-31.59128 274.375,42.81252 9.17,7.447 26.8357,22.18688 39.0625,32.81248 64.0906,55.69772 113.3343,74.14424 163.75,61.25 35.0699,-8.96928 67.9666,-28.6356 118.4375,-70.625 68.7192,-57.17132 114.8375,-85.31252 140.3125,-85.31252 5.5683,0 8.277,-1.4026 11.25,-5.93748 3.5403,-5.39944 4.0541,-13.58196 4.6875,-81.56252 0.6345,-68.08292 -1.5364,-130.9108 -4.6875,-134.06248 h -0.3124 c -7.5881,-1.4952 -59.2927,13.26232 -97.5,28.43752 -31.2931,12.429 -51.9379,23.34124 -67.1875,35.31248 -79.035,62.04436 -200.2085,95.01864 -214.0625,58.125 -11.581,-30.84008 1.5115,-44.70084 64.6875,-68.125 59.6823,-22.1288 95.0541,-42.58032 123.125,-70.93752 27.3876,-27.6672 38.7839,-55.78944 35.3125,-86.56248 -6.0438,-53.5784 -42.9051,-72.21996 -109.6875,-55 -10.2385,2.64 -43.3277,14.8586 -73.4375,26.875 -92.1679,36.78304 -129.0326,46.887 -168.125,46.875 -24.2872,-0.008 -39.0912,-2.91188 -64.375,-13.43752 -32.5998,-13.57132 -73.3851,-45.02312 -92.8125,-71.25 -19.3698,-29.61992 1.1025,0.2844 -20.3125,-31.87496 -0.3936,-0.59152 -1.057,-7.8788 -3.75,-16.25 -7.4167,-23.05472 -8.6191,-62.45824 -2.5,-88.12504 10.9438,-45.9038 36.7522,-87.8386 77.8125,-126.56248 54.5328,-51.4296 121.9025,-84.94248 217.1875,-108.125 89.9041,-21.87352 133.5408,-43.33232 141.25,-69.06252 2.4329,-8.121 2.06,-9.70136 -3.4375,-20.93748 -11.5802,-23.66904 -35.1877,-37.30488 -66.25,-38.75 z m -1004.99998,961.25 c -43.63696,0.75244 -90.48928,25.69184 -157.5,82.5 -50.328,42.66528 -88.57876,65.6252 -129.68752,77.81252 -17.87728,5.3002 -23.58636,5.90548 -54.375,5.93748 -28.5746,0.032 -37.43992,-1.0072 -51.875,-5 -49.22648,-13.61576 -91.41744,-37.76412 -146.56248,-84.375 -65.39296,-55.27272 -106.58772,-75.85352 -151.87504,-75.93752 -22.57112,-0.0416 -39.08788,4.00116 -64.37496,16.25 -25.67536,12.43696 -43.71764,25.41412 -85.93752,61.56252 -51.48004,44.07676 -85.97972,65.70596 -125.31248,78.43748 -28.65056,9.27236 -42.76036,10.98672 -75,9.68752 -35.5298,-1.43176 -52.58324,-5.62928 -87.81252,-22.5 -31.14976,-14.91708 -57.17392,-32.654 -92.18748,-62.81248 -58.59828,-50.47284 -90.15716,-69.17352 -131.25,-77.5 -53.01672,-10.74256 -101.5,10.21136 -177.18752,76.87496 -93.02328,81.9326 -178.80132,105.33304 -267.81248,73.12504 -37.79328,-13.67524 -67.61062,-33.77108 -124.68752,-84.37504 -42.9755,-38.10172 -48.9184,-42.30016 -78.75,-55.62496 l -23.4375,-10.62504 -0.625,113.43752 c -0.3192,62.44024 -0.1019,113.9606 0.3125,114.375 0.4159,0.41552 8.7552,2.85748 18.4375,5.31252 21.4534,5.43896 52.1391,19.8578 76.875,36.25 20.3717,13.50004 40.3087,29.85288 83.12502,67.81248 15.67004,13.89248 42.92736,23.9832 49.06248,27.5 58.47896,20.04576 92.68448,19.8126 138.125,5.625 11.458,-1.4532 44.30044,-11.53352 75,-39.68748 56.13104,-51.47712 97.8952,-78.22176 145.625,-92.81252 50.9662,-15.58016 109.4466,-10.832 160.625,12.81252 35.16844,16.24792 55.78748,31.44544 118.43748,86.87496 38.63972,34.18576 51.8742,42.93232 83.43752,50.93752 31.3786,7.9604 71.43124,8.36996 96.875,-5.31248 44.46284,-14.38308 43.4076,-19.9372 115.31252,-79.68752 45.41164,-37.73572 84.13848,-60.02324 123.12496,-70.625 26.39752,-7.1776 72.71776,-7.16724 99.37504,0 48.24972,12.97268 90.03804,37.08456 150.62496,87.5 49.95672,41.56992 83.11204,61.78596 116.87504,70.625 32.43628,8.49128 64.2344,3.88216 98.12496,-13.75 20.3106,-10.56664 36.55484,-21.83 64.06252,-45 73.16648,-61.62852 112.04664,-86.5578 150.93748,-97.18752 13.986,-3.82312 23.36712,-4.71948 51.56252,-4.68748 80.64648,0.0936 121.57224,17.45228 200.9375,85.625 40.8258,35.06832 67.7876,54.40816 90.9375,65 65.2666,29.86088 118.8024,14.94844 201.5625,-55.625 50.4137,-42.9902 78.038,-61.79124 113.75,-77.18748 35.7021,-15.39228 51.555,-18.2818 93.125,-18.12504 33.4879,0.1252 38.3075,0.659 56.5625,6.25 52.1929,15.9854 80.9912,34.83148 160,104.68752 91.9256,63.2324 190.7133,48.55408 271.5625,-20.31248 32.0951,-27.33868 90.0729,-70.12248 130.9375,-83.12504 8.0238,-2.55292 15.8566,-5.87008 18.125,-7.5 l 0.3124,-0.3124 h 0.3124 c 4.3625,-6.0836 6.4974,-41.30232 6.5625,-106.56248 0.063,-64.746 -2.2155,-94.73408 -8.125,-107.18752 -8.6405,-18.20856 -25.8907,-9.99032 -81.25,39.06248 -74.1815,65.73076 -105.7322,86.0736 -157.1875,101.87504 -17.1902,5.2792 -22.5343,5.81988 -55.625,5.93748 -40.6292,0.1456 -53.1088,-1.9634 -85.625,-15.31252 -35.7396,-14.67244 -70.3006,-37.61176 -113.4375,-75.62496 -43.0537,-37.93984 -78.5179,-59.94132 -112.1875,-69.06252 -18.8185,-5.09656 -51.7813,-5.06744 -70.9375,0 -33.8527,8.955 -70.3999,31.96784 -120,75.93748 -55.1275,48.8696 -103.518,71.57296 -141.25,80 -37.4551,8.36548 -92.3485,2.52052 -101.875,-1.25 -9.6451,-3.81756 -40.7693,-13.04724 -62.8125,-26.87496 -24.879,-15.60676 -45.4864,-31.43568 -74.375,-56.56252 -59.63236,-51.86708 -92.82464,-70.95632 -131.25,-76.25 -6.16284,-0.84904 -12.20364,-1.35748 -18.43748,-1.25 z m -1380.93752,309.375 c -44.23592,0.51184 -80.20488,19.28052 -142.81248,74.375 -16.73844,14.73024 -39.239,33.88496 -50,42.5 -10.76108,8.61504 -20.87096,16.024 -29.68752,20 -89.64572,40.43536 -127.06656,33.98652 -188.43752,19.375 -44.2584,-10.53752 -95.73608,-57.3812 -114.68748,-73.75 -43.9121,-37.92768 -70.1569,-57.60768 -91.5625,-68.75 -11.8331,-6.16 -17.8752,-8.72604 -21.25,-8.43752 -0.156,0.028 -0.7935,0.2692 -0.9375,0.3124 h -0.3125 c -0.1225,0.0712 -0.8246,0.53984 -0.9375,0.625 h -0.3125 c -0.4813,0.56184 -0.9078,1.61204 -1.25,2.5 -0.8249,2.13976 -2.0913,53.31984 -2.8125,113.43752 l -1.5625,109.0626 10,2.5 c 30.9822,7.68712 38.5684,10.27086 51.25,16.24998 27.5624,12.9948 47.7263,27.37088 91.875,65.93748 63.41298,55.3958 102.20046,75.2712 151.24998,77.5 53.88056,2.4489 81.19212,-11.056 158.75,-78.125 58.94832,-50.9762 98.74628,-72.83658 149.68752,-82.49998 68.95616,-13.08048 145.08588,13.8661 220.625,77.81248 64.3738,54.4953 96.828,74.2574 136.25,82.5 18.86692,3.9452 46.40292,2.3731 66.25,-3.75 32.69432,-10.0856 58.92444,-26.9007 108.125,-69.0625 71.51112,-61.28024 120.02488,-85.22314 182.18752,-89.99998 47.64148,-3.6618 103.80308,13.99974 154.68748,48.43748 18.95616,12.8291 27.955,19.9712 64.375,51.25 30.20244,25.9392 49.6194,39.1685 74.375,50.625 23.98948,11.102 38.68872,14.487 61.875,14.375 45.75672,-0.2738 86.57764,-20.9859 153.43752,-76.875 52.6098,-43.9768 84.91952,-63.86062 125.93748,-77.49996 52.8138,-17.5616 108.44364,-13.27124 162.18748,12.18746 34.46372,16.3252 59.07722,33.3997 104.06252,72.8125 37.7929,33.1111 70.2356,53.6264 102.5,64.375 21.7282,7.2459 55.3587,7.275 78.75,0 34.9072,-10.8556 64.4622,-29.7929 117.8125,-75 17.3151,-14.672 40.0057,-32.5615 50.625,-39.6875 91.1877,-61.18838 182.4387,-60.44178 275.9375,1.875 11.668,7.7768 34.1309,25.0798 49.6875,38.4375 48.7012,41.8175 78.3015,60.9366 113.75,73.125 24.5308,8.4353 58.7793,8.9903 83.4375,1.25 31.5286,-9.8974 61.1271,-28.5719 100.625,-63.4375 64.82,-57.218 93.0489,-75.19744 140,-89.06246 l 21.875,-6.56248 V 851.30032 737.86284 l -7.1875,1.56252 c -23.6437,4.72864 -49.4543,22.2964 -103.125,70.31248 -19.5628,17.50224 -41.4139,35.9524 -48.75,41.25 -117.264,83.81576 -214.9054,39.12164 -276.25,9.375 -11.8554,-5.74896 -33.6473,-26.41784 -50.9375,-41.25 -43.6355,-37.43208 -67.233,-54.39208 -93.125,-67.18748 -28.8158,-14.24084 -45.6012,-18.54952 -72.1875,-18.43752 -44.5518,0.2104 -76.0337,16.31124 -141.25,72.18752 -41.9675,35.95704 -67.032,53.95588 -94.6875,68.12496 -19.9681,10.23068 -28.951,13.69612 -54.6875,20.31252 -4.5469,1.1662 -7.3217,3.63756 -8.75,4.375 h -0.3124 -0.3124 c -36.8035,7.5768 -66.0113,5.23748 -96.8749,-3.125 -11.4784,-2.1532 -52.4194,-23.3484 -77.8126,-40.31252 -25.0912,-16.763 -45.6182,-32.717 -69.99996,-54.37496 -52.95336,-47.0378 -94.48668,-67.24352 -137.81252,-67.18752 -46.29556,0.078 -88.30472,21.5562 -157.81248,80.625 -54.61144,46.41 -74.29004,58.82492 -117.18752,74.375 -12.53248,4.5444 -14.71696,8.04668 -22.81248,9.68752 -28.82084,5.8324 -59.04692,4.06108 -88.125,-0.3124 -8.07844,-1.21464 -23.43748,-7.18748 -23.43748,-7.18748 -44.94052,-13.61196 -69.57412,-28.7084 -125.62504,-78.12504 -48.79276,-43.01804 -70.57184,-57.95608 -103.75,-70.31248 -23.15004,-8.624 -58.78228,-10.98812 -80.93748,-5.31248 -35.13168,9.00028 -68.96504,28.59084 -108.43748,62.5 -52.90628,45.45016 -87.49276,68.60588 -124.68752,83.43748 -28.42344,11.3344 -50.57584,15.625 -79.375,15.625 -38.74272,0 -71.0514,-8.2624 -109.375,-28.43752 -26.82224,-14.1204 -48.03548,-29.21688 -86.56248,-61.56248 -66.1396,-55.52848 -107.04516,-75.56 -153.43752,-75 z"
         sodipodi:nodetypes="ccsssscsssssssscccsssccsssssssssssscsccccssscsssssscssssscsccscccsssssssssssssssssssssssssssssccsssssssssscsssssssssssscssssscssssssscccscssccssssccscsssssscsssscscssccccssscsscsssssssssssscssscccccscccssssssscscssscsssscsscssssscccccscssscsscccccsscsccscscssssssss" /></g><g
       id="g24"
       style="display:inline"><g
         id="g21"
         transform="matrix(4,0,0,4,-1454.1436,1604.7378)"
         style="stroke-width:0.25"><path
           d="m 433.77815,-461.4101 c -12.00059,20.3386 -27.65384,32.05542 -27.66374,72.07308 -0.007,25.62467 24.29306,57.71043 67.0494,56.86809 42.75635,-0.84234 62.07863,-32.22565 62.22667,-54.59067 0.28838,-43.56555 -16.48883,-51.78646 -33.08932,-75.42221 -12.87732,-18.33474 -30.98706,-58.74466 -35.86909,-59.21247 -4.76708,-0.4568 -24.1179,45.81734 -32.65392,60.28418 z"
           style="fill:#000000;stroke-width:0.249999"
           id="path1-1"
           sodipodi:nodetypes="sszssss" /><path
           d="m 445.93518,-439.40325 c -8.10573,13.73762 -18.67866,21.65168 -18.68534,48.68142 -0.005,17.30806 16.40862,38.98022 45.28818,38.41128 28.87959,-0.56896 41.93072,-21.76666 42.03073,-36.87301 0.19479,-29.42616 -11.13731,-34.9789 -22.35002,-50.94358 -8.69796,-12.38411 -20.93008,-39.67878 -24.22762,-39.99476 -3.21989,-0.30857 -16.29032,30.94708 -22.05593,40.71865 z"
           style="fill:#1c98ff;fill-opacity:1;stroke-width:0.249999"
           id="path1-1-7"
           sodipodi:nodetypes="sszssss" /></g><g
         id="g22"
         transform="matrix(4,0,0,4,-1454.1436,1604.7378)"
         style="stroke-width:0.25"><path
           d="m 435.54592,-224.52933 c -12.00059,20.3386 -27.65384,32.05542 -27.66374,72.07308 -0.007,25.62467 24.29306,57.710429 67.0494,56.868089 42.75635,-0.84234 62.07863,-32.225649 62.22667,-54.590669 0.28838,-43.56555 -16.48883,-51.78646 -33.08932,-75.42221 -12.87732,-18.33474 -30.98706,-58.74466 -35.86909,-59.21247 -4.76708,-0.4568 -24.1179,45.81734 -32.65392,60.28418 z"
           style="fill:#000000;stroke-width:0.249999"
           id="path20"
           sodipodi:nodetypes="sszssss" /><path
           d="m 447.70295,-202.52248 c -8.10573,13.73762 -18.67866,21.65168 -18.68534,48.68142 -0.005,17.30806 16.40862,38.98022 45.28818,38.41128 28.87959,-0.56896 41.93072,-21.76666 42.03073,-36.87301 0.19479,-29.42616 -11.13731,-34.9789 -22.35002,-50.94358 -8.69796,-12.38411 -20.93008,-39.67878 -24.22762,-39.99476 -3.21989,-0.30857 -16.29032,30.94708 -22.05593,40.71865 z"
           style="fill:#1c98ff;fill-opacity:1;stroke-width:0.249999"
           id="path21"
           sodipodi:nodetypes="sszssss" /></g></g></g></svg>
