<?xml version="1.0" encoding="UTF-8" standalone="no"?>
<svg
   height="32"
   viewBox="0 -960 1280.0153 1280"
   width="32.000381"
   fill="#e3e3e3"
   version="1.1"
   id="svg1"
   xmlns="http://www.w3.org/2000/svg"
   xmlns:svg="http://www.w3.org/2000/svg">
  <defs
     id="defs1" />
  <path
     id="path2"
     style="baseline-shift:baseline;display:inline;overflow:visible;opacity:1;vector-effect:none;fill:#fa4646;stroke-width:1;stroke-linejoin:round;enable-background:accumulate;stop-color:#000000;stop-opacity:1;fill-opacity:1"
     d="m 639.9107,-755.8 c -224.27726,0 -407.22841,182.90602 -407.22841,406.96054 0,19.8755 1.41561,39.44115 4.1964,58.5709 H 116.16551 v -58.21375 H 0.09514839 v 58.21375 H 0.00585824 v 115.8918 h 0.08929015 v 290.1759 H 116.16551 V 57.763943 h 504.9954 c 6.20557,0.2832 12.47649,0.44645 18.74979,0.44645 6.27334,0 12.54422,-0.16325 18.74985,-0.44645 h 505.35255 v 58.035197 h 115.9816 v -58.035197 -115.89177 -116.248933 -115.8918 -58.21375 h -115.9816 v 58.21375 h -121.0703 c 2.781,-19.12975 4.1965,-38.6954 4.1965,-58.5709 0,-224.05452 -182.95133,-406.96054 -407.2286,-406.96054 z m 0,115.80247 c 161.43395,0 291.15807,129.63617 291.15807,291.15807 0,156.10876 -121.13524,282.421523 -274.99749,290.711633 H 623.75014 C 469.88788,-66.417937 348.75265,-192.7307 348.75265,-348.83946 c 0,-161.5219 129.72411,-291.15807 291.15805,-291.15807 z m -160.71279,51.87456 c -28.68321,28.55888 -47.99352,66.78962 -53.66024,107.6776 -5.66672,40.88797 2.41982,84.45793 28.57116,123.3024 21.20558,31.49821 52.55463,54.41544 89.55278,65.08869 17.80979,5.13786 38.18689,6.34872 57.85657,2.49996 1.82646,3.88353 1.32077,8.26365 -0.5357,15.98201 -2.94749,12.25411 -14.05889,27.4281 -23.21401,33.3033 -33.17108,21.28691 -83.94635,9.4871 -115.53469,-22.14263 l -64.19585,63.83864 c 30.13923,30.17875 69.50577,51.56668 110.80256,59.37448 41.2969,7.80781 84.47085,1.97459 122.05243,-22.14267 30.47415,-19.5562 51.85929,-49.63141 60.62446,-86.07063 4.9403,-20.53852 4.49944,-44.76293 -3.30355,-67.76723 0.53859,-0.04 1.06364,-0.2237 1.60715,-0.26784 1.40004,-0.1139 2.81747,-0.1771 4.28566,-0.35713 0.0178,0.16052 -0.0195,0.40065 0,0.5357 0.15626,-0.17341 0.38222,-0.4596 0.53569,-0.62503 5.65851,-0.72554 11.73082,-1.93624 17.85697,-4.37494 1.27022,0.31033 2.60556,0.63833 4.10715,1.07137 12.44206,3.58926 28.18252,15.53698 34.55324,24.99982 23.08228,34.28575 13.90179,84.44188 -16.16058,114.37394 l 67.4101,67.49938 c 28.68323,-28.55891 48.0828,-66.78962 53.74951,-107.67759 5.66673,-40.88794 -2.41985,-84.36872 -28.57116,-123.21312 -21.20561,-31.49824 -52.55463,-54.50469 -89.55278,-65.17799 -19.30869,-5.57023 -41.49741,-6.6345 -62.67804,-1.51789 -1.44384,-4.64464 -3.51458,-9.42836 -6.24986,-14.19627 0.27487,-1.61586 0.76343,-3.42335 1.24991,-5.44638 2.9476,-12.25406 14.05892,-27.42809 23.21414,-33.30327 33.17107,-21.28691 83.94631,-9.48706 115.53465,22.14266 l 64.10655,-63.83869 c -30.13921,-30.17876 -69.41647,-51.56664 -110.71329,-59.37447 -41.29689,-7.80779 -84.56017,-1.97457 -122.14165,22.1427 -30.47416,19.55615 -51.8594,49.63142 -60.62451,86.07059 -4.94034,20.53854 -4.32077,44.85227 3.48212,67.85654 -0.53857,0.0401 -1.1529,0.13455 -1.69643,0.17859 -6.61551,0.53736 -13.97667,1.71289 -21.51766,4.55352 -11.33901,-4.87488 -23.94966,-14.84472 -29.46401,-23.0355 -23.0823,-34.28577 -13.99106,-84.4419 16.0713,-114.37398 z" />
</svg>
