<?xml version="1.0" encoding="UTF-8" standalone="no"?>
<svg
   height="89.473999"
   viewBox="0 -960 3578.9599 3578.9599"
   width="89.473999"
   fill="#e3e3e3"
   version="1.1"
   id="svg1"
   xml:space="preserve"
   xmlns="http://www.w3.org/2000/svg"
   xmlns:svg="http://www.w3.org/2000/svg"><defs
     id="defs1" /><g
     id="layer2"
     style="display:inline"
     transform="translate(1304.7752,1165.575)"><path
       id="rect31"
       style="fill:#00ffff;fill-opacity:1;stroke-width:168;stroke-linecap:butt;stroke-linejoin:round;stroke-dasharray:none"
       d="m -95.944833,-1292.103 c -0.9023,0.053 -2.5434,0.4764 -5.234397,1.4844 h 5.703097 c 0.1275,-0.1585 0.2849,-0.3907 0.3906,-0.5469 l 0.078,-0.078 c 0.013,-0.035 0.069,-0.2011 0.078,-0.2344 v -0.078 -0.078 -0.078 -0.078 l -0.078,-0.078 v -0.078 h -0.078 l -0.078,-0.078 h -0.078 c -0.354191,-0.1129 -0.702381,-0.074 -0.7033,-0.079 z m -1204.218767,20.7031 v 2730.5468 h 3570.8593 v -2691.011 z" /><path
       style="display:inline;fill:#000000"
       d="m -307.18153,1323.5691 c -35.65191,-6.8755 -33.55852,61.2024 -33.55852,-1091.33512 V -828.85051 h 92.53041 92.53042 V 226.97221 c 0,775.55769 -1.92741,1060.05289 -7.261,1071.75889 -11.6294,25.5237 -79.80807,37.2639 -144.24131,24.838 z M 1159.3539,1209.1487 c -18.8251,-23.9323 -19.5362,-127.1287 -1.0336,-149.9909 l 12.1924,-15.0651 206.7922,-1.842 c 257.6709,-2.2951 241.0472,-8.7671 241.0472,93.8465 0,97.87 20.892,89.8656 -234.556,89.8656 H 1172.5799 Z M 872.83979,732.58775 c -22.00044,-23.41839 -20.74358,-132.09607 1.78827,-154.62792 l 15.66346,-15.66345 h 350.06418 c 418.3042,0 377.9964,-9.89352 377.9964,92.779 0,102.39348 41.4826,92.28182 -378.5814,92.28182 H 886.71497 Z M 1161.7914,253.08817 c -21.9847,-21.98474 -23.6404,-125.6281 -2.4375,-152.58326 l 13.226,-16.814111 h 210.1233 c 255.0795,0 235.6489,-7.591449 235.6489,92.067251 0,99.19699 15.8274,92.99357 -237.2627,92.99357 H 1177.4549 Z M 887.68094,-217.1336 c -25.02694,-13.86354 -28.71633,-25.29213 -28.71633,-88.95419 0,-51.42593 2.06213,-64.43407 12.19899,-76.95257 l 12.199,-15.06513 h 354.062 c 422.4565,0 380.9275,-10.08772 380.9275,92.53042 0,102.37278 40.1266,92.24146 -372.383,94.02088 -243.4368,1.0501 -349.29623,-0.59838 -358.28816,-5.57941 z m 271.67296,-494.52145 c -21.2029,-26.95517 -19.5472,-130.59853 2.4375,-152.58326 l 15.6635,-15.66346 h 203.6345 c 253.0901,0 237.2627,-6.20342 237.2627,92.99358 0,99.65869 19.4306,92.06724 -235.6489,92.06724 H 1172.5799 Z M -581.69652,-994.73264 c -46.10531,-28.11076 -46.15639,-28.41636 -46.18302,-276.27746 l -0.0239,-222.001 25.06337,-26.8739 25.06337,-26.8739 295.60237,-1.7204 c 355.668292,-2.07 308.304636,-16.9526 419.68822,131.8748 84.04612,112.3 95.0492,134.041 86.81393,171.5359 -5.5505,25.2713 -160.70004,230.5726 -187.913203,248.65576 l -21.683278,14.40855 -287.814999,-0.0239 c -275.93875,-0.0229 -288.67319,-0.5471 -308.6129,-12.70449 z M 874.62806,-1189.11 c -23.20607,-23.206 -23.84274,-133.9629 -0.894,-155.5222 l 14.76946,-13.8751 H 1240.665 c 419.0314,0 377.6871,-10.1019 377.6871,92.2818 0,102.6725 40.3078,92.779 -377.9964,92.779 H 890.29152 Z m 299.03804,-469.3681 c -31.1976,-12.5697 -41.3571,-127.4387 -14.3122,-161.8207 l 13.226,-16.8141 h 212.325 c 254.7464,0 233.4472,-8.3003 233.4472,90.9743 0,100.3772 15.3441,94.1863 -232.1866,93.682 -109.2071,-0.2225 -204.8318,-2.9321 -212.4994,-6.0215 z m -1514.40615,-146.0208 c 0,-128.2038 0.44263,-128.9937 74.68867,-133.2918 102.52265,-5.9349 110.37216,3.9695 110.37216,139.2665 v 95.4208 h -92.53042 -92.53041 z"
       id="path26" /><circle
       id="path28"
       style="fill:#00ffff;stroke:#000000;stroke-width:40"
       cx="-1301.2396"
       cy="-891.67377"
       r="0" /><circle
       id="path29"
       style="fill:#00ffff;stroke:#000000;stroke-width:40"
       cx="-1280.0265"
       cy="-898.74475"
       r="0" /><circle
       id="path30"
       style="fill:#00ffff;stroke:#000000;stroke-width:40"
       cx="-1082.0366"
       cy="-891.67377"
       r="0" /></g></svg>
