<?xml version="1.0" encoding="UTF-8" standalone="no"?>
<svg
   height="89.473999"
   viewBox="0 -960 3578.9599 3578.9599"
   width="89.473999"
   fill="#e3e3e3"
   version="1.1"
   id="svg1"
   xml:space="preserve"
   xmlns="http://www.w3.org/2000/svg"
   xmlns:svg="http://www.w3.org/2000/svg"><defs
     id="defs1" /><g
     id="layer2"
     style="display:inline"
     transform="translate(1304.7752,1165.575)"><g
       id="g26"
       transform="matrix(2.4310125,0,0,2.4310125,-642.51213,732.19427)"
       style="stroke-width:0.41135"><path
         id="path2"
         style="fill:#000000;stroke-width:0.41135"
         d="m 295.22479,-908.70002 c -524.46381,0 -508.73021,-2.4265 -539.68751,84.375 -13.369,37.4857 -13.9271,750.784903 -0.625,787.500003 31.8671,87.95396 31.582,87.7341 564.06251,87.8125 l 780.46941,2.10937 c 0,0 66.537,-0.82281 76.875,-110.9375 10.338,-110.114673 1.1793,4.17729 -14.2969,-766.796873 -0.823,-41.0023 -48.8358,-84.5321 -89.8437,-84.0625 -441.59839,5.0568 -776.95381,0 -776.95381,0 z m -451.56251,87.1875 c 25.4398,-20.0109 1192.55382,0.7778 1236.17252,6.5625 19.0529,22.9267 34.9562,743.797803 13.75,763.515623 -22.4948,20.91612 -56.875,26.5625 -56.875,26.5625 l -738.67251,-3.51562 c -549.49081,0 -473.43751,64.91335 -473.43751,-403.437503 v -374.6875 z m 241.682239,83.3778 c -46.87944,-0.9298 -94.8022402,3.7024 -106.25004,14.0625 -12.5406,11.349 -15.6433,24.6129 -9.4531,37.9687 v 269.8438 269.99998 l 16.25,11.25 c 14.3608998,10.05871 29.9298,12.07237 42.5,8.28125 13.931,0.9698 33.6146,1.17187 62.73439,1.17187 32.853781,0 58.348321,-1.61201 77.031251,-5.15625 26.50302,3.66125 49.40689,-15.66684 42.5,-44.29685 -2.9935,-12.4087 -6.6703,-133.7795 -8.125,-269.6875 l -2.5,-246.875 -2.10938,-1.4063 c -0.77151,-7.6141 -4.94713,-16.5826 -12.26562,-27.0312 -7.52,-10.7364 -53.43306,-17.1953 -100.312501,-18.125 z m 42.812501,79.7656 v 236.7969 216.3281 c -10.59286,-0.8383 -21.75268,-1.3401 -32.968751,-1.5625 -15.61332,-0.3097 -31.32253,0.01 -45.78129,0.9375 -2.2487,-48.0822 -4.4146,-137.1332 -5.3906,-233.5156 l -2.1875,-217.8125 c 10.80651,0.2122 23.7253,0.3125 39.45314,0.3125 17.7303,0 33.339181,-0.4954 46.875001,-1.4844 z m 713.95156,-68.0499 c -46.87944,-0.9298 -94.80223,3.7024 -106.25003,14.0625 -12.5406,11.349 -15.6433,24.6129 -9.4531,37.9687 v 269.8438 270.00001 l 16.25,11.25 c 14.36089,10.05871 29.92979,12.07237 42.49999,8.28125 13.931,0.9698 33.6146,1.17187 62.73439,1.17187 32.85378,0 58.34832,-1.61201 77.03125,-5.15625 26.50302,3.66125 49.40689,-15.66684 42.5,-44.29688 -2.9935,-12.4087 -6.6703,-133.7795 -8.125,-269.6875 l -2.5,-246.875 -2.10938,-1.4063 c -0.77151,-7.6141 -4.94713,-16.5826 -12.26562,-27.0312 -7.52,-10.7364 -53.43306,-17.1953 -100.3125,-18.125 z m 42.8125,79.7656 v 236.7969 216.3281 c -10.59286,-0.8383 -21.75268,-1.3401 -32.96875,-1.5625 -15.61332,-0.3097 -31.32253,0.01 -45.78129,0.9375 -2.2487,-48.0822 -4.4146,-137.1332 -5.3906,-233.5156 l -2.1875,-217.8125 c 10.80651,0.2122 23.7253,0.3125 39.45314,0.3125 17.7303,0 33.33918,-0.4954 46.875,-1.4844 z" /><path
         style="fill:#1c98ff;fill-opacity:1;stroke-width:0;stroke-linecap:round;stroke-linejoin:round"
         d="m 108.94282,-206.69756 c -7.53511,-0.4396 -23.886618,-0.592 -36.336693,-0.34 l -22.6365,0.46 -0.57588,-10.35636 c -2.474464,-44.49896 -6.742188,-306.16428 -6.742188,-413.38047 v -25.84436 l 40.437671,-0.5192 c 22.24072,-0.284 41.3326,-0.7872 42.4264,-1.1148 l 1.98876,-0.596 v 226.37723 226.37728 l -2.43068,-0.132 c -1.33688,-0.072 -8.59576,-0.4916 -16.13087,-0.9312 z"
         id="path24" /><path
         style="fill:#1c98ff;fill-opacity:1;stroke-width:0;stroke-linecap:round;stroke-linejoin:round"
         d="m 869.62919,-195.64484 c -4.8752,1.0832 -21.22656,-0.4648 -36.09372,-0.344 l -27.03128,0.22 -0.004,-3.7836 c -0.002,-2.0812 -0.276,-10.53372 -0.6092,-18.78372 -2.4184,-59.9478 -3.8736,-141.1002 -5.30148,-295.625 -0.508,-54.99999 -1.0592,-107.27535 -1.2248,-116.16747 l -0.3,-16.16752 19.18912,0.438 c 17.96828,0.41 60.26692,-0.44 64.97036,-1.3056 l 2.0312,-0.372 v 226.31955 226.31952 l -3.2812,-0.092 c -1.8048,-0.052 -7.46852,-1.74 -12.34376,-0.6564 z"
         id="path25" /><path
         style="fill:#808080;fill-opacity:1;stroke-width:0;stroke-linecap:round;stroke-linejoin:round"
         d="m 827.72475,-26.997328 c -256.77275,-1.14216 -462.44991,-1.44744 -564.99998,-0.83852 -233.891962,1.38876 -303.357433,1.25376 -321.874996,-0.6256 -60.529454,-6.14308 -87.784494,-19.47792 -103.006514,-50.397119 -6.49301,-13.18868 -9.67546,-24.533843 -12.86029,-45.845843 -2.50934,-16.7918 -2.44228,9.68044 -1.04452,-412.36575 l 0.89088,-268.99507 10.02437,-7.7548 c 11.56833,-8.94916 12.23593,-9.1342 39.765,-11.02244 81.708902,-5.60452 475.72746,-5.63948 904.35605,-0.08 216.56952,2.8088 182.80124,5.26852 257.36445,7.71408 20.51,0.6728 38.607,1.2232 40.2155,1.2232 2.2024,0 3.2424,1.0032 4.2109,4.06248 16.8849,53.33412 30.0282,622.98995 17.0131,737.380103 -0.99,8.69968 -2.4324,17.206199 -3.2056,18.903359 -3.1156,6.83752 -22.4138,18.46408 -41.1498,24.7912 -11.0062,3.7168 -13.2467,4.0322 -30.625,4.31088 -10.3125,0.164 26.9889,0.528 -195.07355,-0.4596 z m 15.33408,-88.206602 c 34.96364,-0.336 62.85,-1.1368 67.23952,-1.934 4.125,-0.7488 12.56248,-1.642 18.75,-1.9848 14.183,-0.7856 21.43412,-3.1844 28.546,-9.44452 10.92276,-9.61468 12.83388,-18.0408 9.90412,-43.66847 -3.3588,-29.38044 -6.05988,-132.82232 -7.76848,-297.5 -1.8124,-174.69119 -2.486,-211.82031 -3.8504,-212.29167 -0.6636,-0.228 -1.2068,-1.6352 -1.2072,-3.1252 -10e-4,-3.3972 -6.66252,-17.61744 -10.78912,-23.03236 -1.7076,-2.2408 -5.23024,-5.1584 -7.82812,-6.48376 -26.1424,-13.3368 -125.80228,-17.87964 -175.75676,-8.01156 -19.87484,3.926 -28.11732,9.09204 -34.33952,21.52232 -2.3612,4.71736 -2.616,6.65652 -1.888,14.375 0.4628,4.90712 1.2096,131.10351 1.6596,280.43639 l 0.8176,271.51439 8.125,5.76972 c 16.53056,11.73868 27.85652,15.88672 40.88544,14.97396 4.26824,-0.3 34.64324,-0.8012 67.50004,-1.116 z m -694.08406,-12.15972 c 5.5,-0.7912 16.18808,-1.898 23.75128,-2.4588 15.91404,-1.1804 23.5004,-4.21572 30.83884,-12.33848 6.83984,-7.57088 9.03944,-14.6736 8.128,-26.24611 -0.4188,-5.31736 -1.3172,-16.6992 -1.9968,-25.29296 -3.1728,-40.12888 -5.67576,-155.92952 -7.71352,-356.875 -0.788,-77.68751 -1.802,-141.53123 -2.254,-141.87499 -0.452,-0.344 -1.8148,-3.8444 -3.0284,-7.7792 -3.3372,-10.81888 -11.55376,-22.2838 -18.28444,-25.5132 -17.9624,-8.61848 -65.84042,-13.78808 -116.315639,-12.55912 -54.1309988,1.318 -76.91681,6.00004 -87.45321,17.97004 -8.13744,9.24464 -10.649888,20.55816 -6.88574,31.00648 1.54716,4.29452 1.80396,43.02408 1.82012,274.49927 l 0.01882,269.49931 10.3125,6.89012 c 12.3169356,8.22936 15.0116116,9.69368 21.5624994,11.71724 6.6008358,2.0388 132.6780896,1.488 147.5000096,-0.6444 z"
         id="path26" /></g></g></svg>
